<mxfile host="www.draw.io" modified="2020-04-05T07:09:51.351Z" agent="5.0 (Macintosh; Intel Mac OS X 10_13_1) AppleWebKit/537.36 (KHTML, like Gecko) Chrome/80.0.3987.149 Safari/537.36" etag="ZLPq82ZjaFtpS_0ZAh5M" version="12.9.7" type="github">
  <diagram id="9kq6zoJX0rj1PIkXjqYG" name="第 1 页">
    <mxGraphModel dx="1186" dy="614" grid="1" gridSize="10" guides="1" tooltips="1" connect="1" arrows="1" fold="1" page="1" pageScale="1" pageWidth="3300" pageHeight="4681" math="0" shadow="0">
      <root>
        <mxCell id="0" />
        <mxCell id="1" parent="0" />
        <mxCell id="2lvI47gKS-zeJH3E8dDC-2" value="开发人员" style="shape=umlLifeline;perimeter=lifelinePerimeter;whiteSpace=wrap;html=1;container=1;collapsible=0;recursiveResize=0;outlineConnect=0;" vertex="1" parent="1">
          <mxGeometry x="360" y="80" width="100" height="460" as="geometry" />
        </mxCell>
        <mxCell id="2lvI47gKS-zeJH3E8dDC-12" value="" style="html=1;points=[];perimeter=orthogonalPerimeter;" vertex="1" parent="2lvI47gKS-zeJH3E8dDC-2">
          <mxGeometry x="45" y="70" width="10" height="40" as="geometry" />
        </mxCell>
        <mxCell id="2lvI47gKS-zeJH3E8dDC-13" value="新功能/问题" style="html=1;verticalAlign=bottom;startArrow=oval;endArrow=block;startSize=8;" edge="1" target="2lvI47gKS-zeJH3E8dDC-12" parent="2lvI47gKS-zeJH3E8dDC-2">
          <mxGeometry relative="1" as="geometry">
            <mxPoint x="-60" y="70" as="sourcePoint" />
          </mxGeometry>
        </mxCell>
        <mxCell id="2lvI47gKS-zeJH3E8dDC-18" value="" style="html=1;points=[];perimeter=orthogonalPerimeter;" vertex="1" parent="2lvI47gKS-zeJH3E8dDC-2">
          <mxGeometry x="45" y="130" width="10" height="40" as="geometry" />
        </mxCell>
        <mxCell id="2lvI47gKS-zeJH3E8dDC-20" value="" style="html=1;points=[];perimeter=orthogonalPerimeter;" vertex="1" parent="2lvI47gKS-zeJH3E8dDC-2">
          <mxGeometry x="45" y="200" width="10" height="40" as="geometry" />
        </mxCell>
        <mxCell id="2lvI47gKS-zeJH3E8dDC-21" value="基于创建的分支开发" style="edgeStyle=orthogonalEdgeStyle;html=1;align=left;spacingLeft=2;endArrow=block;rounded=0;entryX=0;entryY=-0.025;exitX=-0.2;exitY=0.475;exitDx=0;exitDy=0;exitPerimeter=0;entryDx=0;entryDy=0;entryPerimeter=0;" edge="1" target="2lvI47gKS-zeJH3E8dDC-20" parent="2lvI47gKS-zeJH3E8dDC-2" source="2lvI47gKS-zeJH3E8dDC-18">
          <mxGeometry x="-0.359" y="120" relative="1" as="geometry">
            <mxPoint x="50" y="190" as="sourcePoint" />
            <Array as="points">
              <mxPoint x="20" y="149" />
              <mxPoint x="20" y="199" />
            </Array>
            <mxPoint x="-240" y="9" as="offset" />
          </mxGeometry>
        </mxCell>
        <mxCell id="2lvI47gKS-zeJH3E8dDC-22" value="" style="html=1;points=[];perimeter=orthogonalPerimeter;" vertex="1" parent="2lvI47gKS-zeJH3E8dDC-2">
          <mxGeometry x="45" y="260" width="10" height="40" as="geometry" />
        </mxCell>
        <mxCell id="2lvI47gKS-zeJH3E8dDC-23" value="本机自测" style="edgeStyle=orthogonalEdgeStyle;html=1;align=left;spacingLeft=2;endArrow=block;rounded=0;entryX=0;entryY=-0.025;exitX=-0.2;exitY=0.475;exitDx=0;exitDy=0;exitPerimeter=0;entryDx=0;entryDy=0;entryPerimeter=0;" edge="1" parent="2lvI47gKS-zeJH3E8dDC-2" target="2lvI47gKS-zeJH3E8dDC-22">
          <mxGeometry x="0.4253" y="63" relative="1" as="geometry">
            <mxPoint x="43" y="220" as="sourcePoint" />
            <Array as="points">
              <mxPoint x="20" y="220" />
              <mxPoint x="20" y="259" />
            </Array>
            <mxPoint x="-60" y="44" as="offset" />
          </mxGeometry>
        </mxCell>
        <mxCell id="2lvI47gKS-zeJH3E8dDC-3" value="代码库" style="shape=umlLifeline;perimeter=lifelinePerimeter;whiteSpace=wrap;html=1;container=1;collapsible=0;recursiveResize=0;outlineConnect=0;" vertex="1" parent="1">
          <mxGeometry x="520" y="80" width="100" height="460" as="geometry" />
        </mxCell>
        <mxCell id="2lvI47gKS-zeJH3E8dDC-14" value="" style="html=1;points=[];perimeter=orthogonalPerimeter;" vertex="1" parent="2lvI47gKS-zeJH3E8dDC-3">
          <mxGeometry x="45" y="70" width="10" height="40" as="geometry" />
        </mxCell>
        <mxCell id="2lvI47gKS-zeJH3E8dDC-16" value="" style="html=1;points=[];perimeter=orthogonalPerimeter;" vertex="1" parent="2lvI47gKS-zeJH3E8dDC-3">
          <mxGeometry x="45" y="130" width="10" height="40" as="geometry" />
        </mxCell>
        <mxCell id="2lvI47gKS-zeJH3E8dDC-17" value="基于master创建迭代分支" style="edgeStyle=orthogonalEdgeStyle;html=1;align=left;spacingLeft=2;endArrow=block;rounded=0;entryX=1;entryY=0;exitX=0.9;exitY=0.55;exitDx=0;exitDy=0;exitPerimeter=0;" edge="1" target="2lvI47gKS-zeJH3E8dDC-16" parent="2lvI47gKS-zeJH3E8dDC-3" source="2lvI47gKS-zeJH3E8dDC-14">
          <mxGeometry relative="1" as="geometry">
            <mxPoint x="50" y="110" as="sourcePoint" />
            <Array as="points">
              <mxPoint x="75" y="92" />
              <mxPoint x="75" y="130" />
            </Array>
          </mxGeometry>
        </mxCell>
        <mxCell id="2lvI47gKS-zeJH3E8dDC-24" value="" style="html=1;points=[];perimeter=orthogonalPerimeter;" vertex="1" parent="2lvI47gKS-zeJH3E8dDC-3">
          <mxGeometry x="45" y="260" width="10" height="40" as="geometry" />
        </mxCell>
        <mxCell id="2lvI47gKS-zeJH3E8dDC-4" value="测试环境" style="shape=umlLifeline;perimeter=lifelinePerimeter;whiteSpace=wrap;html=1;container=1;collapsible=0;recursiveResize=0;outlineConnect=0;" vertex="1" parent="1">
          <mxGeometry x="680" y="80" width="100" height="450" as="geometry" />
        </mxCell>
        <mxCell id="2lvI47gKS-zeJH3E8dDC-5" value="线上环境" style="shape=umlLifeline;perimeter=lifelinePerimeter;whiteSpace=wrap;html=1;container=1;collapsible=0;recursiveResize=0;outlineConnect=0;" vertex="1" parent="1">
          <mxGeometry x="840" y="80" width="100" height="300" as="geometry" />
        </mxCell>
        <mxCell id="2lvI47gKS-zeJH3E8dDC-15" value="" style="edgeStyle=orthogonalEdgeStyle;rounded=0;orthogonalLoop=1;jettySize=auto;html=1;" edge="1" parent="1" source="2lvI47gKS-zeJH3E8dDC-12" target="2lvI47gKS-zeJH3E8dDC-14">
          <mxGeometry relative="1" as="geometry" />
        </mxCell>
        <mxCell id="2lvI47gKS-zeJH3E8dDC-19" value="" style="edgeStyle=orthogonalEdgeStyle;rounded=0;orthogonalLoop=1;jettySize=auto;html=1;" edge="1" parent="1" source="2lvI47gKS-zeJH3E8dDC-16" target="2lvI47gKS-zeJH3E8dDC-18">
          <mxGeometry relative="1" as="geometry" />
        </mxCell>
        <mxCell id="2lvI47gKS-zeJH3E8dDC-25" value="" style="edgeStyle=orthogonalEdgeStyle;rounded=0;orthogonalLoop=1;jettySize=auto;html=1;" edge="1" parent="1" source="2lvI47gKS-zeJH3E8dDC-22" target="2lvI47gKS-zeJH3E8dDC-24">
          <mxGeometry relative="1" as="geometry" />
        </mxCell>
      </root>
    </mxGraphModel>
  </diagram>
</mxfile>
